<?xml version="1.0" encoding="UTF-8" standalone="no"?>
<!DOCTYPE svg  PUBLIC '-//W3C//DTD SVG 20010904//EN'  'http://www.w3.org/TR/2001/REC-SVG-20010904/DTD/svg10.dtd'>
<svg xmlns="http://www.w3.org/2000/svg" height="145pt" width="145pt" version="1.0" preserveAspectRatio="xMidYMid meet" viewBox="0 0 145.000000 145.000000">
 <metadata>Created by potrace 1.11, written by Peter Selinger 2001-2013</metadata>
 <g transform="translate(0 145) scale(0.1 -0.1)">
  <path d="m20 725v-725h700 700l-2 723-3 722-697 3-698 2v-725zm430 615c44-22 65-46 85-93 22-53 20-57-34-57-45 0-51 3-63 28-7 15-30 35-51 46-33 16-45 17-76 7-52-15-80-49-92-112-21-99 25-189 104-204 50-10 88 11 112 62 19 41 22 42 68 43 54 0 58-10 28-75-26-58-81-102-136-111-138-20-244 41-276 160-24 87 1 205 55 264 62 69 187 88 276 42zm740-18v-48l-135 4-135 4v-61-61h123 123l-4-40-4-40h-119-119v-65-65h135 135v-45-45h-190-190v255 255h190 190v-48zm-810-937v-255h-50-50v255 255h50 50v-255zm810 210v-45h-70-70v-210-210h-50-50v210 210h-70-70v45 45h190 190v-45z"/>
 </g>
</svg>
