<?xml version="1.0" standalone="no"?>
<!DOCTYPE svg PUBLIC "-//W3C//DTD SVG 20010904//EN"
 "http://www.w3.org/TR/2001/REC-SVG-20010904/DTD/svg10.dtd">
<svg version="1.0" xmlns="http://www.w3.org/2000/svg"
 width="78.000000pt" height="78.000000pt" viewBox="0 0 78.000000 78.000000"
 preserveAspectRatio="xMidYMid meet">
<metadata>
Created by potrace 1.11, written by Peter Selinger 2001-2013
</metadata>
<g transform="translate(0.000000,78.000000) scale(0.100000,-0.100000)"
fill="#000000" stroke="none">
<path d="M385 709 c11 -13 24 -27 29 -30 5 -4 6 -11 2 -17 -3 -5 15 -20 39
-33 25 -13 45 -27 45 -30 0 -4 13 -21 30 -39 25 -26 28 -35 19 -52 -14 -27 -4
-35 12 -9 13 20 14 20 44 1 27 -17 31 -17 45 -2 13 14 12 15 -2 10 -8 -4 -25
0 -37 8 -27 19 -28 39 -2 24 11 -5 28 -10 38 -10 14 0 13 3 -7 17 -14 10 -28
17 -32 15 -5 -1 -8 3 -8 10 0 6 -3 9 -6 5 -4 -3 -15 4 -26 16 l-20 22 16 -25
c26 -40 18 -52 -17 -26 -14 11 -15 19 -8 39 11 28 -2 44 -52 65 -17 7 -25 17
-21 24 4 7 3 8 -4 4 -11 -7 -17 6 -13 27 1 5 -3 6 -9 2 -6 -3 -8 -10 -5 -15
12 -20 -15 -18 -41 2 l-29 22 20 -25z"/>
<path d="M262 699 c-71 -12 -120 -38 -169 -92 -81 -88 -93 -213 -30 -318 52
-87 155 -143 188 -103 7 9 -2 19 -33 36 -24 14 -42 29 -41 35 1 6 -5 10 -13 9
-9 0 -28 14 -42 33 -21 27 -23 33 -9 28 11 -4 16 -3 12 3 -3 6 -12 10 -19 10
-19 0 -40 82 -32 127 4 21 18 60 32 86 14 27 20 46 15 42 -21 -12 -11 14 11
29 27 19 36 13 17 -11 -11 -15 -10 -15 9 1 12 11 36 19 52 19 16 0 27 4 24 9
-3 4 1 8 10 8 8 0 17 -6 19 -12 3 -8 6 -5 6 6 1 12 6 16 16 12 10 -3 15 1 15
12 0 10 5 23 12 30 7 7 10 11 8 11 -3 -1 -29 -5 -58 -10z m-152 -119 c0 -5 -2
-10 -4 -10 -3 0 -8 5 -11 10 -3 6 -1 10 4 10 6 0 11 -4 11 -10z m-23 -40 c-17
-28 -29 -25 -15 5 6 13 15 22 19 19 5 -3 3 -14 -4 -24z m-17 -45 c0 -8 -4 -15
-10 -15 -5 0 -10 7 -10 15 0 8 5 15 10 15 6 0 10 -7 10 -15z m-13 -77 c-2 -13
-4 -5 -4 17 -1 22 1 32 4 23 2 -10 2 -28 0 -40z m16 -55 c3 -16 1 -32 -4 -37
-6 -7 -9 -7 -10 0 0 5 -2 21 -4 37 -2 15 0 27 5 27 4 0 10 -12 13 -27z"/>
<path d="M311 643 c0 -12 2 -13 6 -5 4 10 8 10 19 1 8 -7 14 -7 14 -1 0 5 -7
13 -16 16 -23 9 -24 8 -23 -11z"/>
<path d="M386 627 c-6 -21 -60 -87 -71 -87 -3 0 5 15 19 33 32 41 32 42 1 43
-14 1 -25 -2 -25 -7 0 -5 -8 -9 -17 -9 -16 0 -16 2 -3 11 12 9 12 10 -3 5 -10
-3 -30 -6 -44 -6 -15 0 -23 -3 -20 -7 4 -3 2 -12 -4 -19 -6 -8 -9 -19 -6 -26
3 -9 -7 -13 -33 -12 -31 0 -40 -4 -50 -24 -20 -45 -23 -105 -6 -152 9 -25 18
-49 19 -55 5 -23 42 -38 90 -36 49 2 49 2 43 -26 -14 -63 -14 -73 -4 -73 7 0
6 -6 -2 -15 -14 -17 -36 -20 -43 -5 -3 6 -4 5 -3 -2 1 -7 15 -14 29 -16 15 -2
25 -8 22 -13 -4 -5 -2 -9 4 -9 5 0 12 6 14 13 3 7 6 5 6 -5 1 -10 -8 -22 -19
-28 -11 -6 -20 -21 -20 -34 0 -22 3 -23 38 -16 20 4 62 11 93 15 31 3 65 12
74 19 16 11 14 16 -23 55 -24 25 -43 56 -47 77 -6 33 -9 35 -32 29 -32 -8 -43
7 -42 55 l0 35 16 -30 c10 -16 16 -34 15 -38 -1 -5 2 -6 7 -2 11 6 46 -24 53
-46 2 -7 11 -10 21 -6 17 6 17 8 1 32 -9 14 -24 25 -34 25 -22 0 -47 28 -55
62 -6 23 -2 32 24 54 31 26 42 66 21 79 -18 11 -11 20 30 39 33 16 43 17 53 6
9 -10 9 -13 -1 -17 -24 -9 -42 -34 -42 -59 0 -22 2 -24 23 -13 42 23 51 54 11
38 -23 -8 -25 -8 -15 5 7 9 22 18 33 22 18 6 19 7 2 25 -21 23 -47 24 -64 4
-7 -9 -23 -15 -34 -13 -26 4 -33 45 -12 73 14 20 15 20 24 -5 9 -22 10 -19 10
22 0 52 -12 72 -22 35z m-116 -56 c0 -5 -7 -11 -15 -15 -15 -5 -20 5 -8 17 9
10 23 9 23 -2z m-66 -40 c3 -5 -5 -11 -19 -13 -24 -5 -32 2 -18 15 9 10 31 9
37 -2z m80 -14 c3 4 6 1 6 -5 0 -6 -8 -16 -19 -21 -10 -6 -24 -24 -31 -41 -11
-27 -11 -34 4 -48 38 -38 129 -11 139 42 4 17 5 16 6 -6 3 -60 -106 -93 -156
-46 -13 12 -23 17 -23 11 0 -5 -10 -9 -22 -9 -32 1 -32 -38 0 -42 16 -3 22 2
22 17 0 19 1 20 30 3 37 -21 38 -32 3 -33 -25 -2 -25 -2 -5 -6 13 -3 21 -10
19 -16 -3 -7 -9 -11 -15 -10 -6 2 -23 -1 -36 -7 -22 -8 -28 -5 -44 18 -31 43
-45 99 -37 148 l6 45 19 -23 c15 -19 16 -24 4 -31 -19 -11 -18 -36 1 -43 19
-8 45 13 39 31 -3 7 -1 16 5 19 6 4 9 12 7 19 -1 7 -1 9 1 4 8 -12 23 3 23 23
0 16 4 18 24 10 13 -5 27 -6 30 -3z m-100 -22 c-4 -8 -11 -12 -16 -9 -6 4 -5
10 3 15 19 12 19 11 13 -6z m103 -55 c-4 -16 0 -20 18 -20 13 0 28 8 34 17 5
10 13 15 17 11 16 -17 -20 -40 -58 -36 -21 2 -38 0 -38 -5 0 -4 -4 -5 -10 -2
-5 3 -10 11 -10 16 0 6 5 7 10 4 6 -3 10 -1 10 5 0 6 5 8 10 5 6 -3 10 1 10 9
0 9 3 16 6 16 4 0 4 -9 1 -20z m-107 -6 c0 -17 -22 -14 -28 4 -2 7 3 12 12 12
9 0 16 -7 16 -16z m14 -52 c3 -5 -1 -9 -9 -9 -8 0 -15 4 -15 9 0 4 4 8 9 8 6
0 12 -4 15 -8z m116 -92 c0 -34 -5 -62 -11 -66 -9 -5 -10 10 -5 55 5 44 4 61
-4 56 -5 -3 -8 -10 -5 -15 3 -5 1 -11 -5 -15 -11 -7 -12 0 -4 32 4 13 11 20
20 16 10 -4 14 -23 14 -63z m75 -112 c6 -5 5 -11 -5 -18 -24 -16 -28 -12 -28
33 0 39 1 40 11 17 6 -14 16 -28 22 -32z m-52 -6 c14 -18 -5 -36 -31 -28 -18
6 -19 8 -3 42 12 27 17 32 20 18 2 -11 8 -25 14 -32z m12 -52 c3 -6 -1 -7 -9
-4 -18 7 -21 14 -7 14 6 0 13 -4 16 -10z"/>
<path d="M235 483 c-14 -15 -25 -35 -24 -43 0 -13 1 -13 6 0 3 8 17 27 31 43
14 15 23 27 19 27 -3 0 -18 -12 -32 -27z"/>
<path d="M169 573 c-13 -16 -12 -17 4 -4 9 7 17 15 17 17 0 8 -8 3 -21 -13z"/>
<path d="M678 558 c-4 -9 -2 -18 3 -20 9 -3 -109 -203 -129 -218 -4 -3 -16
-22 -26 -42 -11 -21 -23 -38 -27 -38 -5 0 8 -15 29 -34 42 -39 63 -34 46 13
-9 21 -8 32 2 46 9 12 10 22 4 30 -5 7 -6 15 -2 19 4 4 8 12 8 17 3 20 6 25
30 54 25 29 25 29 19 5 -7 -25 -7 -25 10 -5 14 16 16 17 11 3 -3 -11 2 -22 14
-28 16 -9 24 -1 59 61 23 40 40 73 39 74 -2 1 -20 11 -40 24 -20 12 -38 30
-40 39 -3 16 -4 16 -10 0z m-14 -120 c-5 -8 -2 -9 11 -4 15 5 16 4 5 -9 -10
-12 -15 -13 -21 -3 -7 12 -3 28 7 28 3 0 2 -5 -2 -12z"/>
<path d="M505 530 c-19 -7 -19 -7 2 -18 28 -15 33 -15 33 2 0 20 -11 25 -35
16z"/>
<path d="M567 493 c-4 -3 -7 -11 -7 -17 0 -6 5 -5 12 2 6 6 9 14 7 17 -3 3 -9
2 -12 -2z"/>
<path d="M605 470 c3 -5 11 -10 16 -10 6 0 7 5 4 10 -3 6 -11 10 -16 10 -6 0
-7 -4 -4 -10z"/>
<path d="M520 446 c0 -8 4 -17 10 -21 5 -3 7 -13 4 -23 -5 -13 -4 -14 4 -4 13
19 10 54 -5 60 -7 2 -13 -3 -13 -12z"/>
<path d="M589 433 c-13 -16 -12 -17 4 -4 16 13 21 21 13 21 -2 0 -10 -8 -17
-17z"/>
<path d="M560 395 c-10 -12 -10 -18 -2 -26 7 -5 10 -6 7 -3 -2 4 0 15 6 25 12
23 6 25 -11 4z"/>
<path d="M490 385 c0 -9 6 -12 15 -9 8 4 15 7 15 9 0 2 -7 5 -15 9 -9 3 -15 0
-15 -9z"/>
<path d="M633 336 c0 -8 5 -14 10 -13 5 1 11 -3 14 -9 2 -7 -7 -11 -26 -9 -17
1 -28 -1 -25 -6 3 -5 9 -7 14 -4 14 9 23 -16 11 -28 -7 -7 -21 -12 -31 -12
-25 0 -31 -17 -8 -21 9 -1 25 8 36 20 21 23 61 86 47 73 -4 -4 -16 0 -25 8
-14 13 -17 13 -17 1z"/>
<path d="M380 318 c0 -12 18 -18 34 -12 25 9 19 22 -9 20 -14 0 -25 -4 -25 -8z"/>
<path d="M446 302 c-15 -18 -15 -20 6 -38 23 -19 23 -19 6 2 -17 19 -17 21 -1
37 10 9 15 17 12 17 -3 0 -13 -8 -23 -18z"/>
<path d="M222 255 c9 -10 21 -16 28 -13 7 2 -1 10 -16 17 -27 12 -28 11 -12
-4z"/>
<path d="M464 185 c2 -7 0 -17 -6 -23 -17 -17 12 -26 38 -11 35 18 31 46 -6
46 -20 0 -29 -5 -26 -12z"/>
<path d="M173 145 c-3 -9 -3 -18 -1 -21 3 -3 8 4 11 16 6 23 -1 27 -10 5z"/>
</g>
</svg>
