<?xml version="1.0" encoding="utf-8"?>
<!-- Generator: Adobe Illustrator 18.1.0, SVG Export Plug-In . SVG Version: 6.00 Build 0)  -->
<svg version="1.1" id="Слой_1" xmlns="http://www.w3.org/2000/svg" xmlns:xlink="http://www.w3.org/1999/xlink" x="0px" y="0px"
	 viewBox="0 0 224 114.5" enable-background="new 0 0 224 114.5" xml:space="preserve">
<g>
	<path fill="#4B78BB" d="M37.6,41h-4.1V28.4h-1.2V41h-4.1V25.2h9.5V41z"/>
	<path fill="#4B78BB" d="M39.3,25.2h4.1c1.1,0,2,0.1,2.6,0.3s1.1,0.4,1.4,0.8s0.5,0.7,0.6,1.2s0.2,1.2,0.2,2.2V31
		c0,1-0.1,1.7-0.3,2.2s-0.6,0.8-1.1,1.1s-1.3,0.4-2.2,0.4h-1.1V41h-4.1V25.2z M43.4,27.9v4c0.1,0,0.2,0,0.3,0c0.4,0,0.6-0.1,0.8-0.3
		s0.2-0.6,0.2-1.2v-1.3c0-0.5-0.1-0.9-0.3-1.1S43.9,27.9,43.4,27.9z"/>
	<path fill="#4B78BB" d="M58.7,34.5c0,1.6,0,2.7-0.1,3.4s-0.3,1.3-0.7,1.8s-0.9,1-1.6,1.3s-1.5,0.4-2.3,0.4c-0.8,0-1.6-0.1-2.3-0.4
		s-1.2-0.7-1.6-1.2s-0.7-1.2-0.7-1.8s-0.1-1.8-0.1-3.4v-2.7c0-1.6,0-2.7,0.1-3.4s0.3-1.3,0.7-1.8s0.9-1,1.6-1.3s1.5-0.4,2.3-0.4
		c0.8,0,1.6,0.1,2.3,0.4s1.2,0.7,1.6,1.2s0.7,1.2,0.7,1.8s0.1,1.8,0.1,3.4V34.5z M54.6,29.3c0-0.7,0-1.2-0.1-1.4s-0.2-0.3-0.5-0.3
		c-0.2,0-0.4,0.1-0.5,0.2s-0.2,0.7-0.2,1.5v7.4c0,0.9,0,1.5,0.1,1.7s0.2,0.3,0.5,0.3c0.3,0,0.5-0.1,0.5-0.4s0.1-0.8,0.1-1.8V29.3z"
		/>
	<path fill="#4B78BB" d="M75.1,33.3c0,1,0,1.8-0.1,2.2c-0.1,0.6-0.4,1.2-0.9,1.7c-0.7,0.8-2,1.2-3.9,1.2h-0.7V41h-4.1v-2.6h-0.6
		c-1.9,0-3.2-0.4-3.9-1.2c-0.4-0.5-0.7-1.1-0.9-1.7c-0.1-0.5-0.1-1.2-0.1-2.2V33c0-1,0-1.8,0.1-2.2c0.1-0.6,0.4-1.2,0.9-1.7
		c0.7-0.8,2-1.2,3.9-1.2c0.1,0,0.4,0,0.6,0v-2.7h4.1v2.7c0.3,0,0.6,0,0.7,0c1.9,0,3.2,0.4,3.9,1.2c0.4,0.5,0.7,1.1,0.9,1.7
		c0.1,0.5,0.1,1.2,0.1,2.2V33.3z M65.3,36v-5.6H65c-0.3,0-0.6,0.2-0.8,0.5s-0.3,0.8-0.3,1.3v2c0,0.5,0.1,1,0.3,1.3S64.6,36,65,36
		H65.3z M70.9,34.2v-2c0-0.5-0.1-1-0.3-1.3s-0.5-0.5-0.8-0.5h-0.4V36h0.4c0.3,0,0.6-0.2,0.8-0.5S70.9,34.7,70.9,34.2z"/>
	<path fill="#4B78BB" d="M76.2,25.2H83v3.2h-2.7v3h2.6v3h-2.6v3.5h3V41h-7.1V25.2z"/>
	<path fill="#4B78BB" d="M94.1,32.1H90v-2.7c0-0.8,0-1.3-0.1-1.5s-0.3-0.3-0.6-0.3c-0.3,0-0.6,0.1-0.6,0.4s-0.1,0.8-0.1,1.6v7.3
		c0,0.8,0,1.3,0.1,1.5s0.3,0.4,0.6,0.4c0.3,0,0.5-0.1,0.6-0.4c0.1-0.2,0.1-0.8,0.1-1.7v-2h4.1v0.6c0,1.6-0.1,2.8-0.3,3.5
		s-0.7,1.3-1.5,1.8c-0.8,0.5-1.8,0.8-2.9,0.8c-1.2,0-2.2-0.2-3-0.7s-1.3-1-1.6-1.8s-0.4-1.9-0.4-3.5v-4.6c0-1.1,0-2,0.1-2.6
		s0.3-1.1,0.7-1.6s0.9-0.9,1.6-1.2s1.5-0.5,2.4-0.5c1.2,0,2.2,0.2,3,0.7s1.3,1.1,1.6,1.8c0.2,0.7,0.4,1.8,0.4,3.3V32.1z"/>
	<path fill="#4B78BB" d="M105.2,32.1h-4.1v-2.7c0-0.8,0-1.3-0.1-1.5s-0.3-0.3-0.6-0.3c-0.3,0-0.6,0.1-0.6,0.4s-0.1,0.8-0.1,1.6v7.3
		c0,0.8,0,1.3,0.1,1.5s0.3,0.4,0.6,0.4c0.3,0,0.5-0.1,0.6-0.4c0.1-0.2,0.1-0.8,0.1-1.7v-2h4.1v0.6c0,1.6-0.1,2.8-0.3,3.5
		s-0.7,1.3-1.5,1.8c-0.8,0.5-1.8,0.8-2.9,0.8c-1.2,0-2.2-0.2-3-0.7s-1.3-1-1.6-1.8s-0.4-1.9-0.4-3.5v-4.6c0-1.1,0-2,0.1-2.6
		s0.3-1.1,0.7-1.6s0.9-0.9,1.6-1.2s1.5-0.5,2.4-0.5c1.2,0,2.2,0.2,3,0.7s1.3,1.1,1.6,1.8c0.2,0.7,0.4,1.8,0.4,3.3V32.1z"/>
	<path fill="#4B78BB" d="M115.8,41h-3.4v-7.2l-2.1,7.2h-3.6V25.2h3.4v7.1l2.3-7.1h3.4V41z"/>
	<path fill="#4B78BB" d="M126.9,34.5c0,1.6,0,2.7-0.1,3.4s-0.3,1.3-0.7,1.8s-0.9,1-1.6,1.3s-1.5,0.4-2.3,0.4c-0.8,0-1.6-0.1-2.3-0.4
		s-1.2-0.7-1.6-1.2s-0.7-1.2-0.7-1.8s-0.1-1.8-0.1-3.4v-2.7c0-1.6,0-2.7,0.1-3.4s0.3-1.3,0.7-1.8s0.9-1,1.6-1.3s1.5-0.4,2.3-0.4
		c0.8,0,1.6,0.1,2.3,0.4s1.2,0.7,1.6,1.2s0.7,1.2,0.7,1.8s0.1,1.8,0.1,3.4V34.5z M122.8,29.3c0-0.7,0-1.2-0.1-1.4s-0.2-0.3-0.5-0.3
		c-0.2,0-0.4,0.1-0.5,0.2s-0.2,0.7-0.2,1.5v7.4c0,0.9,0,1.5,0.1,1.7s0.2,0.3,0.5,0.3c0.3,0,0.5-0.1,0.5-0.4s0.1-0.8,0.1-1.8V29.3z"
		/>
	<path fill="#4B78BB" d="M137.9,25.2V41h-4.1v-6.6h-1.2V41h-4.1V25.2h4.1v5.7h1.2v-5.7H137.9z"/>
	<path fill="#4B78BB" d="M146.6,25.2L149,41h-4.2l-0.2-2.8h-1.5l-0.2,2.8h-4.3l2.1-15.8H146.6z M144.4,35.4c-0.2-1.8-0.4-4-0.6-6.6
		c-0.4,3-0.7,5.2-0.8,6.6H144.4z"/>
	<path fill="#4B78BB" d="M159.7,41h-4.1V28.4h-1.2v9c0,1.2-0.2,2-0.5,2.5c-0.3,0.5-0.8,0.8-1.4,1c-0.6,0.1-1.6,0.2-3,0.2h-0.6v-2.7
		c0.5,0,0.8-0.1,1-0.2s0.3-0.5,0.3-1.3V25.2h9.4V41z"/>
	<path fill="#4B78BB" d="M170.9,37.3c0,1.2-0.2,2-0.5,2.5s-0.8,0.8-1.4,1s-1.6,0.2-3,0.2h-4.8V25.2h4.1v5.4h0.6
		c1.3,0,2.2,0.1,2.9,0.2s1.1,0.5,1.5,1s0.5,1.3,0.5,2.4V37.3z M166.8,36.9v-2.3c0-0.7-0.1-1.1-0.2-1.2s-0.5-0.2-1.1-0.2v5.2
		c0.5,0,0.9-0.1,1.1-0.2S166.8,37.6,166.8,36.9z"/>
	<path fill="#4B78BB" d="M181.8,25.2V41h-4.1v-6.6h-1.2V41h-4.1V25.2h4.1v5.7h1.2v-5.7H181.8z"/>
	<path fill="#4B78BB" d="M193.1,37.3c0,1.2-0.2,2-0.5,2.5s-0.8,0.8-1.4,1s-1.6,0.2-3,0.2h-4.8V25.2h4.1v5.4h0.6
		c1.3,0,2.2,0.1,2.9,0.2s1.1,0.5,1.5,1s0.5,1.3,0.5,2.4V37.3z M188.9,36.9v-2.3c0-0.7-0.1-1.1-0.2-1.2s-0.5-0.2-1.1-0.2v5.2
		c0.5,0,0.9-0.1,1.1-0.2S188.9,37.6,188.9,36.9z M198.6,41h-4.1V25.2h4.1V41z"/>
	<path fill="#4B78BB" d="M200.1,25.2h6.9v3.2h-2.7v3h2.6v3h-2.6v3.5h3V41h-7.1V25.2z"/>
	<path fill="#4B78BB" d="M37.8,61.3c0,1.2-0.2,2-0.5,2.5s-0.8,0.8-1.4,1s-1.6,0.2-3,0.2h-4.8V49.2h8.1V52h-3.9v2.7h0.6
		c1.3,0,2.2,0.1,2.9,0.2s1.1,0.5,1.5,1s0.5,1.3,0.5,2.4V61.3z M33.6,60.9v-2.3c0-0.7-0.1-1.1-0.2-1.2s-0.5-0.2-1.1-0.2v5.2
		c0.5,0,0.9-0.1,1.1-0.2S33.6,61.6,33.6,60.9z"/>
	<path fill="#4B78BB" d="M47.4,49.2l-1.1,10.5c-0.2,1.7-0.4,2.8-0.6,3.5c-0.2,0.7-0.6,1.1-1.2,1.4C43.9,64.9,43,65,41.6,65h-2.4v-2
		h0.2c0.5,0,0.9,0,1-0.1c0.1-0.1,0.2-0.2,0.2-0.4c0,0-0.1-0.5-0.2-1.3l-2.2-11.9h3.6l1.3,9.9l0.6-9.9H47.4z"/>
	<path fill="#4B78BB" d="M56.5,49.2l-1.4,7l2.2,8.8h-3.8c-0.5-1.6-0.9-3.5-1.3-5.8c-0.1,1-0.2,2.1-0.4,3.2L51.4,65h-4l1.5-8.8
		l-1.5-7h4c0.1,0.4,0.2,1.2,0.4,2.2c0.2,0.8,0.3,1.5,0.4,2.1l0.9-4.3H56.5z"/>
	<path fill="#4B78BB" d="M65,52.4h-3V65h-4.1V49.2H65V52.4z"/>
	<path fill="#4B78BB" d="M73.2,49.2L75.5,65h-4.2l-0.2-2.8h-1.5L69.4,65h-4.3l2.1-15.8H73.2z M71,59.4c-0.2-1.8-0.4-4-0.6-6.6
		c-0.4,3-0.7,5.2-0.8,6.6H71z"/>
	<path fill="#4B78BB" d="M86.3,65h-4.1V52.4h-1.2v9c0,1.2-0.2,2-0.5,2.5c-0.3,0.5-0.8,0.8-1.4,1c-0.6,0.1-1.6,0.2-3,0.2h-0.6v-2.7
		c0.5,0,0.8-0.1,1-0.2s0.3-0.5,0.3-1.3V49.2h9.4V65z"/>
	<path fill="#4B78BB" d="M96.2,49.2v3.2h-2.4V65h-4.1V52.4h-2.4v-3.2H96.2z"/>
	<path fill="#4B78BB" d="M97.1,49.2h6.9v3.2h-2.7v3h2.6v3h-2.6v3.5h3V65h-7.1V49.2z"/>
	<path fill="#4B78BB" d="M105.4,49.2h4.1c1.1,0,2,0.1,2.6,0.3s1.1,0.4,1.4,0.8s0.5,0.7,0.6,1.2s0.2,1.2,0.2,2.2V55
		c0,1-0.1,1.7-0.3,2.2s-0.6,0.8-1.1,1.1s-1.3,0.4-2.2,0.4h-1.1V65h-4.1V49.2z M109.6,51.9v4c0.1,0,0.2,0,0.3,0
		c0.4,0,0.6-0.1,0.8-0.3s0.2-0.6,0.2-1.2v-1.3c0-0.5-0.1-0.9-0.3-1.1S110.1,51.9,109.6,51.9z"/>
	<path fill="#4B78BB" d="M125.1,56.1H121v-2.7c0-0.8,0-1.3-0.1-1.5s-0.3-0.3-0.6-0.3c-0.3,0-0.6,0.1-0.6,0.4s-0.1,0.8-0.1,1.6v7.3
		c0,0.8,0,1.3,0.1,1.5s0.3,0.4,0.6,0.4c0.3,0,0.5-0.1,0.6-0.4c0.1-0.2,0.1-0.8,0.1-1.7v-2h4.1v0.6c0,1.6-0.1,2.8-0.3,3.5
		s-0.7,1.3-1.5,1.8c-0.8,0.5-1.8,0.8-2.9,0.8c-1.2,0-2.2-0.2-3-0.7s-1.3-1-1.6-1.8s-0.4-1.9-0.4-3.5v-4.6c0-1.1,0-2,0.1-2.6
		s0.3-1.1,0.7-1.6s0.9-0.9,1.6-1.2s1.5-0.5,2.4-0.5c1.2,0,2.2,0.2,3,0.7s1.3,1.1,1.6,1.8c0.2,0.7,0.4,1.8,0.4,3.3V56.1z"/>
	<path fill="#4B78BB" d="M126.6,49.2h4.1l0,6.7c0.8,0,1.2-0.4,1.2-1.3l0.1-3.1c0-1.1,0.2-1.9,0.7-2.3h3.8c-0.4,0.4-0.6,1.2-0.5,2.4
		l0,2.7c0,1.6-0.9,2.6-2.8,2.8c1.9,0.2,2.8,1.2,2.8,2.8l0,2.5c0,1.2,0.2,2.1,0.5,2.6h-3.8c-0.4-0.4-0.7-1.2-0.7-2.3v-3.1
		c0-0.4-0.1-0.7-0.4-0.9s-0.5-0.4-0.9-0.4l0,6.7h-4.1V49.2z"/>
	<path fill="#4B78BB" d="M146.5,65H143v-7.2l-2.1,7.2h-3.6V49.2h3.4v7.1l2.3-7.1h3.4V65z"/>
	<path fill="#4B78BB" d="M148.1,49.2h6.9v3.2h-2.7v3h2.6v3h-2.6v3.5h3V65h-7.1V49.2z"/>
	<path fill="#4B78BB" d="M168.1,49.2L167,59.7c-0.2,1.7-0.4,2.8-0.6,3.5c-0.2,0.7-0.6,1.1-1.2,1.4c-0.6,0.3-1.5,0.4-2.9,0.4H160v-2
		h0.2c0.5,0,0.9,0,1-0.1c0.1-0.1,0.2-0.2,0.2-0.4c0,0-0.1-0.5-0.2-1.3L159,49.2h3.6l1.3,9.9l0.6-9.9H168.1z"/>
	<path fill="#4B78BB" d="M178.5,56.1h-4.1v-2.7c0-0.8,0-1.3-0.1-1.5s-0.3-0.3-0.6-0.3c-0.3,0-0.6,0.1-0.6,0.4s-0.1,0.8-0.1,1.6v7.3
		c0,0.8,0,1.3,0.1,1.5s0.3,0.4,0.6,0.4c0.3,0,0.5-0.1,0.6-0.4c0.1-0.2,0.1-0.8,0.1-1.7v-2h4.1v0.6c0,1.6-0.1,2.8-0.3,3.5
		s-0.7,1.3-1.5,1.8c-0.8,0.5-1.8,0.8-2.9,0.8c-1.2,0-2.2-0.2-3-0.7s-1.3-1-1.6-1.8s-0.4-1.9-0.4-3.5v-4.6c0-1.1,0-2,0.1-2.6
		s0.3-1.1,0.7-1.6s0.9-0.9,1.6-1.2s1.5-0.5,2.4-0.5c1.2,0,2.2,0.2,3,0.7s1.3,1.1,1.6,1.8c0.2,0.7,0.4,1.8,0.4,3.3V56.1z"/>
	<path fill="#4B78BB" d="M190,65h-4.1V52.4h-1.2v9c0,1.2-0.2,2-0.5,2.5c-0.3,0.5-0.8,0.8-1.4,1c-0.6,0.1-1.6,0.2-3,0.2h-0.6v-2.7
		c0.5,0,0.8-0.1,1-0.2s0.3-0.5,0.3-1.3V49.2h9.4V65z"/>
	<path fill="#4B78BB" d="M199.8,49.2l-1.1,10.5c-0.2,1.7-0.4,2.8-0.6,3.5c-0.2,0.7-0.6,1.1-1.2,1.4c-0.6,0.3-1.5,0.4-2.9,0.4h-2.4
		v-2h0.2c0.5,0,0.9,0,1-0.1c0.1-0.1,0.2-0.2,0.2-0.4c0,0-0.1-0.5-0.2-1.3l-2.2-11.9h3.6l1.3,9.9l0.6-9.9H199.8z"/>
	<path fill="#4B78BB" d="M207.8,52.4h-3V65h-4.1V49.2h7.1V52.4z"/>
	<path fill="#4B78BB" d="M218,65h-3.4v-7.2l-2.1,7.2h-3.6V49.2h3.4v7.1l2.3-7.1h3.4V65z"/>
	<path fill="#4B78BB" d="M37.4,89h-3.4v-7.2L31.8,89h-3.6V73.2h3.4v7.1l2.3-7.1h3.4V89z"/>
	<path fill="#4B78BB" d="M42.5,73.2h4.1l0,6.7c0.8,0,1.2-0.4,1.2-1.3l0.1-3.1c0-1.1,0.2-1.9,0.7-2.3h3.8c-0.4,0.4-0.6,1.2-0.5,2.4
		l0,2.7c0,1.6-0.9,2.6-2.8,2.8c1.9,0.2,2.8,1.2,2.8,2.8l0,2.5c0,1.2,0.2,2.1,0.5,2.6h-3.8c-0.4-0.4-0.7-1.2-0.7-2.3v-3.1
		c0-0.4-0.1-0.7-0.4-0.9s-0.5-0.4-0.9-0.4l0,6.7h-4.1V73.2z"/>
	<path fill="#4B78BB" d="M62.6,82.5c0,1.6,0,2.7-0.1,3.4s-0.3,1.3-0.7,1.8s-0.9,1-1.6,1.3s-1.5,0.4-2.3,0.4c-0.8,0-1.6-0.1-2.3-0.4
		s-1.2-0.7-1.6-1.2s-0.7-1.2-0.7-1.8s-0.1-1.8-0.1-3.4v-2.7c0-1.6,0-2.7,0.1-3.4s0.3-1.3,0.7-1.8s0.9-1,1.6-1.3s1.5-0.4,2.3-0.4
		c0.8,0,1.6,0.1,2.3,0.4s1.2,0.7,1.6,1.2s0.7,1.2,0.7,1.8s0.1,1.8,0.1,3.4V82.5z M58.5,77.3c0-0.7,0-1.2-0.1-1.4s-0.2-0.3-0.5-0.3
		c-0.2,0-0.4,0.1-0.5,0.2s-0.2,0.7-0.2,1.5v7.4c0,0.9,0,1.5,0.1,1.7s0.2,0.3,0.5,0.3c0.3,0,0.5-0.1,0.5-0.4s0.1-0.8,0.1-1.8V77.3z"
		/>
	<path fill="#4B78BB" d="M73.6,73.2V89h-4.1v-6.6h-1.2V89h-4.1V73.2h4.1v5.7h1.2v-5.7H73.6z"/>
	<path fill="#4B78BB" d="M84.9,80.1h-4.1v-2.7c0-0.8,0-1.3-0.1-1.5s-0.3-0.3-0.6-0.3c-0.3,0-0.6,0.1-0.6,0.4s-0.1,0.8-0.1,1.6v7.3
		c0,0.8,0,1.3,0.1,1.5s0.3,0.4,0.6,0.4c0.3,0,0.5-0.1,0.6-0.4c0.1-0.2,0.1-0.8,0.1-1.7v-2h4.1v0.6c0,1.6-0.1,2.8-0.3,3.5
		s-0.7,1.3-1.5,1.8c-0.8,0.5-1.8,0.8-2.9,0.8c-1.2,0-2.2-0.2-3-0.7s-1.3-1-1.6-1.8s-0.4-1.9-0.4-3.5v-4.6c0-1.1,0-2,0.1-2.6
		s0.3-1.1,0.7-1.6s0.9-0.9,1.6-1.2s1.5-0.5,2.4-0.5c1.2,0,2.2,0.2,3,0.7s1.3,1.1,1.6,1.8c0.2,0.7,0.4,1.8,0.4,3.3V80.1z"/>
	<path fill="#4B78BB" d="M94.5,73.2l-1.1,10.5c-0.2,1.7-0.4,2.8-0.6,3.5c-0.2,0.7-0.6,1.1-1.2,1.4c-0.6,0.3-1.5,0.4-2.9,0.4h-2.4v-2
		h0.2c0.5,0,0.9,0,1-0.1c0.1-0.1,0.2-0.2,0.2-0.4c0,0-0.1-0.5-0.2-1.3l-2.2-11.9H89l1.3,9.9l0.6-9.9H94.5z"/>
	<path fill="#4B78BB" d="M105.4,89h-4.1V76.4H100v9c0,1.2-0.2,2-0.5,2.5c-0.3,0.5-0.8,0.8-1.4,1c-0.6,0.1-1.6,0.2-3,0.2h-0.6v-2.7
		c0.5,0,0.8-0.1,1-0.2s0.3-0.5,0.3-1.3V73.2h9.4V89z"/>
	<path fill="#4B78BB" d="M116.6,85.3c0,1.2-0.2,2-0.5,2.5s-0.8,0.8-1.4,1s-1.6,0.2-3,0.2H107V73.2h4.1v5.4h0.6
		c1.3,0,2.2,0.1,2.9,0.2s1.1,0.5,1.5,1s0.5,1.3,0.5,2.4V85.3z M112.5,84.9v-2.3c0-0.7-0.1-1.1-0.2-1.2s-0.5-0.2-1.1-0.2v5.2
		c0.5,0,0.9-0.1,1.1-0.2S112.5,85.6,112.5,84.9z"/>
	<path fill="#4B78BB" d="M126.3,73.2v3.2h-2.4V89h-4.1V76.4h-2.4v-3.2H126.3z"/>
	<path fill="#4B78BB" d="M134.4,73.2l2.4,15.8h-4.2l-0.2-2.8h-1.5l-0.2,2.8h-4.3l2.1-15.8H134.4z M132.2,83.4
		c-0.2-1.8-0.4-4-0.6-6.6c-0.4,3-0.7,5.2-0.8,6.6H132.2z"/>
	<path fill="#4B78BB" d="M147.7,91.8h-2.8V89h-7.5V73.2h4.1v12.7h1.2V73.2h4.1v12.7h0.8V91.8z"/>
	<path fill="#4B78BB" d="M158,89h-3.4v-7.2l-2.1,7.2h-3.6V73.2h3.4v7.1l2.3-7.1h3.4V89z"/>
	<path fill="#4B78BB" d="M168.8,89h-3.4v-7.2l-2.1,7.2h-3.6V73.2h3.4v7.1l2.3-7.1h3.4V89z"/>
</g>
<g>
	<path fill="#D36363" d="M112,21l-0.4-13.3l0.5,0.5L99.2,8.6L86.4,8.9L60.8,9.4L35.1,9.8L22.3,9.9L9.5,10l2.3-2.3l0.1,12.4l0,12.4
		L12,57.4l-0.1,24.8c0,8.3,0,16.5-0.1,24.8l-2.3-2.3l25.6,0.2l25.6,0.4l25.6,0.5l12.8,0.3l12.8,0.4l-0.5,0.5l0.5-13l0.5,13l0,0.4
		l-0.5,0l-12.8,0.4l-12.8,0.3l-25.6,0.5l-25.6,0.4l-25.6,0.2l-2.3,0l0-2.3c-0.1-8.3-0.1-16.5-0.1-24.8L7,57.4l0.1-24.8l0-12.4
		L7.2,7.8l0-2.3l2.3,0l12.8,0.1l12.8,0.1l25.6,0.4l25.6,0.5l12.8,0.3L112,7.3l0.5,0l0,0.5L112,21z"/>
</g>
</svg>
